RBDS011runT45_grf
version=1
nRows=30
nColumns=19
inDegrees=no
endheader
time	ground_force_r_vx	ground_force_r_vy	ground_force_r_vz	ground_force_r_px	ground_force_r_py	ground_force_r_pz	ground_force_r_mx	ground_force_r_my	ground_force_r_mz	ground_force_l_vx	ground_force_l_vy	ground_force_l_vz	ground_force_l_px	ground_force_l_py	ground_force_l_pz	ground_force_l_mx	ground_force_l_my	ground_force_l_mz
     22.49800000	   -290.98694681	   1798.67355115	    -22.23804381	      2.48606741	      0.00000000	      1.06502538	     -0.00000000	     10.78444183	      0.00000000	      0.00000000	      0.00000000	      0.00000000	      0.00000000	      0.00000000	      0.00000000	      0.00000000	      0.00000000	      0.00000000
     22.49900000	   -288.96442816	   1809.18877545	    -21.63780473	      2.48280580	      0.00000000	      1.06485360	     -0.00000000	     10.87926062	      0.00000000	      0.00000000	      0.00000000	      0.00000000	      0.00000000	      0.00000000	      0.00000000	      0.00000000	      0.00000000	      0.00000000
     22.50000000	   -286.94190952	   1819.70399976	    -21.03756565	      2.47954418	      0.00000000	      1.06468183	     -0.00000000	     10.97407940	      0.00000000	      0.00000000	      0.00000000	      0.00000000	      0.00000000	      0.00000000	      0.00000000	      0.00000000	      0.00000000	      0.00000000
     22.50100000	   -283.77012135	   1828.69224821	    -20.41528416	      2.47607708	      0.00000000	      1.06453756	     -0.00000000	     11.09120852	      0.00000000	      0.00000000	      0.00000000	      0.00000000	      0.00000000	      0.00000000	      0.00000000	      0.00000000	      0.00000000	      0.00000000
     22.50200000	   -280.59833318	   1837.68049666	    -19.79300268	      2.47260997	      0.00000000	      1.06439329	     -0.00000000	     11.20833763	      0.00000000	      0.00000000	      0.00000000	      0.00000000	      0.00000000	      0.00000000	      0.00000000	      0.00000000	      0.00000000	      0.00000000
     22.50300000	   -277.42654501	   1846.66874512	    -19.17072119	      2.46914286	      0.00000000	      1.06424901	     -0.00000000	     11.32546674	      0.00000000	      0.00000000	      0.00000000	      0.00000000	      0.00000000	      0.00000000	      0.00000000	      0.00000000	      0.00000000	      0.00000000
     22.50400000	   -273.50393708	   1854.64192280	    -18.53316482	      2.46555845	      0.00000000	      1.06412014	     -0.00000000	     11.45657092	      0.00000000	      0.00000000	      0.00000000	      0.00000000	      0.00000000	      0.00000000	      0.00000000	      0.00000000	      0.00000000	      0.00000000
     22.50500000	   -269.20591927	   1862.10756509	    -17.88797101	      2.46191538	      0.00000000	      1.06399896	     -0.00000000	     11.59466262	      0.00000000	      0.00000000	      0.00000000	      0.00000000	      0.00000000	      0.00000000	      0.00000000	      0.00000000	      0.00000000	      0.00000000
     22.50600000	   -264.90790145	   1869.57320738	    -17.24277721	      2.45827232	      0.00000000	      1.06387777	     -0.00000000	     11.73275433	      0.00000000	      0.00000000	      0.00000000	      0.00000000	      0.00000000	      0.00000000	      0.00000000	      0.00000000	      0.00000000	      0.00000000
     22.50700000	   -260.24969956	   1876.52731011	    -16.58914924	      2.45458022	      0.00000000	      1.06376272	     -0.00000000	     11.87693769	      0.00000000	      0.00000000	      0.00000000	      0.00000000	      0.00000000	      0.00000000	      0.00000000	      0.00000000	      0.00000000	      0.00000000
     22.50800000	   -254.87112949	   1882.45833373	    -15.91865295	      2.45079005	      0.00000000	      1.06365991	     -0.00000000	     12.03330437	      0.00000000	      0.00000000	      0.00000000	      0.00000000	      0.00000000	      0.00000000	      0.00000000	      0.00000000	      0.00000000	      0.00000000
     22.50900000	   -249.49255942	   1888.38935735	    -15.24815667	      2.44699988	      0.00000000	      1.06355710	     -0.00000000	     12.18967106	      0.00000000	      0.00000000	      0.00000000	      0.00000000	      0.00000000	      0.00000000	      0.00000000	      0.00000000	      0.00000000	      0.00000000
     22.51000000	   -244.11398936	   1894.32038097	    -14.57766038	      2.44320971	      0.00000000	      1.06345429	     -0.00000000	     12.34603774	      0.00000000	      0.00000000	      0.00000000	      0.00000000	      0.00000000	      0.00000000	      0.00000000	      0.00000000	      0.00000000	      0.00000000
     22.51100000	   -237.72182018	   1898.69047490	    -13.87899087	      2.43929984	      0.00000000	      1.06336501	     -0.00000000	     12.51678438	      0.00000000	      0.00000000	      0.00000000	      0.00000000	      0.00000000	      0.00000000	      0.00000000	      0.00000000	      0.00000000	      0.00000000
     22.51200000	   -231.32965100	   1903.06056884	    -13.18032136	      2.43538996	      0.00000000	      1.06327574	     -0.00000000	     12.68753103	      0.00000000	      0.00000000	      0.00000000	      0.00000000	      0.00000000	      0.00000000	      0.00000000	      0.00000000	      0.00000000	      0.00000000
     22.51300000	   -224.93748182	   1907.43066277	    -12.48165185	      2.43148009	      0.00000000	      1.06318646	     -0.00000000	     12.85827767	      0.00000000	      0.00000000	      0.00000000	      0.00000000	      0.00000000	      0.00000000	      0.00000000	      0.00000000	      0.00000000	      0.00000000
     22.51400000	   -217.92720354	   1910.73499029	    -11.76261304	      2.42750728	      0.00000000	      1.06310304	     -0.00000000	     13.03534907	     -0.00000000	      0.00000000	      0.00000000	      0.00000000	      0.00000000	      0.00000000	      0.00000000	      0.00000000	      0.00000000	      0.00000000
     22.51500000	   -210.60787072	   1913.50643460	    -11.03338959	      2.42350300	      0.00000000	      1.06302254	     -0.00000000	     13.21558284	     -0.00000000	      0.00000000	      0.00000000	      0.00000000	      0.00000000	      0.00000000	      0.00000000	      0.00000000	      0.00000000	      0.00000000
     22.51600000	   -203.28853789	   1916.27787892	    -10.30416614	      2.41949873	      0.00000000	      1.06294205	     -0.00000000	     13.39581662	     -0.00000000	      0.00000000	      0.00000000	      0.00000000	      0.00000000	      0.00000000	      0.00000000	      0.00000000	      0.00000000	      0.00000000
     22.51700000	   -195.69475415	   1918.50120919	     -9.56441132	      2.41547055	      0.00000000	      1.06286298	     -0.00000000	     13.57733824	     -0.00000000	      0.00000000	      0.00000000	      0.00000000	      0.00000000	      0.00000000	      0.00000000	      0.00000000	      0.00000000	      0.00000000
     22.51800000	   -187.55206857	   1919.62831138	     -8.80359379	      2.41139455	      0.00000000	      1.06278679	     -0.00000000	     13.76143555	     -0.00000000	      0.00000000	      0.00000000	      0.00000000	      0.00000000	      0.00000000	      0.00000000	      0.00000000	      0.00000000	      0.00000000
     22.51900000	   -179.40938298	   1920.75541358	     -8.04277626	      2.40731856	      0.00000000	      1.06271060	     -0.00000000	     13.94553285	     -0.00000000	      0.00000000	      0.00000000	      0.00000000	      0.00000000	      0.00000000	      0.00000000	      0.00000000	      0.00000000	      0.00000000
     22.52000000	   -171.26669740	   1921.88251578	     -7.28195872	      2.40324257	      0.00000000	      1.06263441	     -0.00000000	     14.12963016	     -0.00000000	      0.00000000	      0.00000000	      0.00000000	      0.00000000	      0.00000000	      0.00000000	      0.00000000	      0.00000000	      0.00000000
     22.52100000	   -162.41952515	   1921.31536204	     -6.49054424	      2.39911452	      0.00000000	      1.06255852	     -0.00000000	     14.31153793	     -0.00000000	      0.00000000	      0.00000000	      0.00000000	      0.00000000	      0.00000000	      0.00000000	      0.00000000	      0.00000000	      0.00000000
     22.52200000	   -153.57235291	   1920.74820830	     -5.69912975	      2.39498648	      0.00000000	      1.06248263	     -0.00000000	     14.49344571	     -0.00000000	      0.00000000	      0.00000000	      0.00000000	      0.00000000	      0.00000000	      0.00000000	      0.00000000	      0.00000000	      0.00000000
     22.52300000	   -144.72518066	   1920.18105456	     -4.90771526	      2.39085843	      0.00000000	      1.06240674	     -0.00000000	     14.67535349	     -0.00000000	      0.00000000	      0.00000000	      0.00000000	      0.00000000	      0.00000000	      0.00000000	      0.00000000	      0.00000000	      0.00000000
     22.52400000	   -135.49599324	   1918.45089091	     -4.09827134	      2.38670661	      0.00000000	      1.06232881	     -0.00000000	     14.85168803	     -0.00000000	      0.00000000	      0.00000000	      0.00000000	      0.00000000	      0.00000000	      0.00000000	      0.00000000	      0.00000000	      0.00000000
     22.52500000	   -126.07579823	   1916.13922231	     -3.27981271	      2.38254289	      0.00000000	      1.06224987	     -0.00000000	     15.02523596	     -0.00000000	      0.00000000	      0.00000000	      0.00000000	      0.00000000	      0.00000000	      0.00000000	      0.00000000	      0.00000000	      0.00000000
     22.52600000	   -116.65560322	   1913.82755370	     -2.46135408	      2.37837918	      0.00000000	      1.06217092	     -0.00000000	     15.19878389	     -0.00000000	      0.00000000	      0.00000000	      0.00000000	      0.00000000	      0.00000000	      0.00000000	      0.00000000	      0.00000000	      0.00000000
     22.52700000	   -107.09157288	   1910.91879748	     -1.63602364	      2.37420789	      0.00000000	      1.06209011	     -0.00000000	     15.36754903	     -0.00000000	      0.00000000	      0.00000000	      0.00000000	      0.00000000	      0.00000000	      0.00000000	      0.00000000	      0.00000000	      0.00000000
